<?xml version="1.0" standalone="no"?>
<!DOCTYPE svg PUBLIC "-//W3C//DTD SVG 20010904//EN"
 "http://www.w3.org/TR/2001/REC-SVG-20010904/DTD/svg10.dtd">
<svg version="1.0" xmlns="http://www.w3.org/2000/svg"
 width="859.000000pt" height="859.000000pt" viewBox="0 0 859.000000 859.000000"
 preserveAspectRatio="xMidYMid meet">
<metadata>
Created by potrace 1.11, written by Peter Selinger 2001-2013
</metadata>
<g transform="translate(0.000000,859.000000) scale(0.100000,-0.100000)"
fill="#000000" stroke="none">
<path d="M6617 7513 c-4 -4 -26 -8 -49 -10 -23 -2 -46 -9 -50 -16 -6 -9 -8 -9
-8 0 0 8 -9 7 -30 -3 -16 -9 -39 -16 -50 -17 -11 -1 -20 -5 -20 -10 0 -5 -6
-7 -12 -5 -7 3 -35 -4 -62 -13 -27 -10 -53 -16 -57 -13 -5 3 -9 0 -9 -6 0 -6
-6 -10 -12 -9 -24 3 -78 -13 -78 -24 0 -6 -3 -8 -6 -4 -4 3 -22 0 -40 -8 -19
-8 -34 -12 -34 -9 0 2 -16 -2 -35 -10 -19 -8 -35 -13 -35 -10 0 2 -16 -2 -35
-10 -20 -9 -38 -15 -40 -16 -3 0 -7 -1 -10 -1 -3 -1 -9 -3 -15 -4 -5 -1 -12
-4 -15 -5 -9 -4 -25 -7 -46 -9 -11 0 -18 -4 -16 -8 3 -5 -9 -9 -26 -10 -17 -1
-33 -6 -36 -11 -3 -5 -14 -8 -23 -6 -10 1 -18 -3 -18 -9 0 -5 -3 -8 -6 -4 -4
3 -28 -2 -55 -12 -34 -13 -49 -15 -53 -7 -3 7 -5 6 -5 -2 -1 -7 -5 -10 -11 -7
-5 3 -10 1 -10 -4 0 -6 -3 -10 -7 -9 -10 2 -94 -22 -108 -30 -12 -8 -34 -13
-57 -15 -10 -1 -18 -5 -18 -10 0 -4 -5 -5 -10 -2 -6 4 -16 2 -23 -3 -7 -6 -26
-13 -42 -16 -17 -2 -31 -5 -32 -6 -2 -2 -6 -3 -10 -4 -5 -1 -14 -5 -20 -9 -7
-5 -13 -6 -13 -3 0 3 -20 -3 -45 -14 -25 -11 -49 -19 -53 -19 -4 1 -9 0 -12
-1 -3 -1 -13 -3 -22 -5 -9 -2 -31 -10 -48 -18 -17 -9 -28 -11 -25 -6 3 5 -1 6
-9 3 -9 -3 -16 -10 -16 -14 0 -5 -8 -7 -17 -6 -17 3 -37 -12 -102 -74 -30 -29
-51 -63 -51 -85 0 -8 -4 -15 -9 -15 -9 0 -25 -70 -24 -110 1 -30 13 -102 20
-112 2 -5 6 -18 8 -30 3 -13 9 -32 14 -43 5 -11 19 -57 32 -103 12 -45 26 -85
30 -88 4 -2 6 -11 2 -19 -3 -8 0 -15 6 -15 6 0 8 -7 5 -15 -4 -8 -2 -15 3 -15
10 0 11 -3 16 -50 2 -14 9 -35 16 -47 6 -13 10 -23 8 -23 -13 0 23 -74 37 -76
9 -1 16 2 16 7 0 4 7 6 16 2 9 -3 19 -1 23 5 3 6 18 13 31 15 14 2 32 6 40 9
20 8 134 42 140 43 3 0 10 3 15 6 6 4 18 5 28 4 9 -2 17 1 17 7 0 6 9 8 19 5
12 -3 22 1 25 10 5 13 9 13 23 2 9 -8 14 -9 10 -3 -4 8 15 18 56 29 34 9 66
16 71 15 5 -1 13 4 17 12 7 10 9 10 9 0 0 -9 6 -9 23 3 13 8 27 12 30 8 4 -3
7 -2 7 4 0 5 6 10 13 11 24 2 47 8 53 15 4 4 18 7 31 7 13 0 23 4 23 9 0 5 11
8 25 6 14 -1 25 2 25 6 0 5 3 8 8 8 4 -1 9 0 12 1 3 1 12 3 20 5 8 2 47 13 85
25 39 12 80 23 92 23 12 1 19 5 17 9 -3 4 3 8 13 8 10 0 31 7 46 15 15 8 25
11 23 6 -3 -4 10 -3 29 3 19 6 35 14 35 18 0 4 7 5 15 2 8 -4 15 -2 15 4 0 6
8 9 18 7 9 -1 23 2 29 7 7 6 20 8 28 4 8 -3 15 -1 15 5 0 6 4 8 9 4 5 -3 12
-1 16 5 4 6 11 8 16 5 5 -4 9 -1 9 4 0 6 3 10 8 9 11 -2 66 14 79 24 7 6 13 4
16 -4 4 -11 6 -10 6 0 1 7 6 10 11 7 6 -3 10 -1 10 5 0 6 4 9 9 6 5 -3 25 1
45 9 20 8 36 12 36 9 0 -4 7 -1 15 6 8 6 19 9 24 6 5 -4 12 -2 16 4 4 6 11 8
16 5 5 -4 12 1 15 10 5 12 9 13 20 4 9 -7 14 -8 14 -1 0 6 25 16 55 23 30 7
55 15 55 19 0 3 12 6 28 5 15 0 30 3 33 7 3 4 17 9 32 10 15 1 27 6 27 11 0 5
7 7 15 3 8 -3 15 -1 15 5 0 6 4 8 9 4 5 -3 12 -1 16 5 4 6 11 8 16 5 5 -4 9
-1 9 4 0 6 3 10 8 10 25 -4 42 3 42 19 0 10 -3 22 -7 26 -7 6 -11 24 -15 59
-1 9 -6 17 -11 17 -5 0 -7 7 -4 15 4 8 2 17 -4 21 -6 3 -8 12 -5 20 3 8 0 14
-6 14 -6 0 -9 3 -5 6 3 3 -1 25 -10 47 -8 23 -17 53 -19 67 -3 13 -9 29 -15
36 -5 6 -6 14 -2 17 3 4 1 12 -4 19 -6 7 -9 21 -8 31 2 9 -1 17 -6 17 -6 0 -7
5 -4 10 3 6 1 10 -5 10 -6 0 -8 5 -5 10 3 6 3 16 -2 23 -8 12 -13 32 -15 55
-1 6 -5 12 -9 12 -5 0 -6 7 -3 15 4 8 1 15 -5 15 -6 0 -11 9 -11 20 0 11 -4
20 -10 20 -5 0 -10 7 -10 15 0 8 -5 15 -11 15 -5 0 -7 5 -4 10 3 6 1 10 -5 10
-7 0 -20 10 -30 23 -23 28 -106 71 -121 61 -8 -4 -9 -3 -5 4 4 8 -1 13 -13 14
-12 0 -27 1 -33 2 -7 1 -16 4 -19 9 -3 4 -9 4 -12 0z"/>
<path d="M440 7311 c0 -4 -12 -8 -27 -9 -15 -1 -30 -7 -34 -13 -3 -6 -10 -10
-14 -8 -4 1 -16 -4 -27 -12 -62 -43 -81 -59 -72 -59 5 0 4 -4 -1 -8 -16 -10
-58 -72 -49 -72 3 0 1 -6 -5 -14 -22 -26 -25 -62 -26 -377 -1 -279 1 -316 14
-316 9 0 19 5 23 11 5 7 8 6 8 -3 0 -11 3 -11 17 0 9 8 14 9 10 3 -8 -14 85
-13 95 1 5 6 8 5 8 -2 0 -7 7 -10 17 -6 12 5 14 3 8 -8 -7 -11 -6 -12 6 -3 8
6 25 10 38 8 14 -3 28 1 33 8 6 10 8 10 8 1 0 -7 5 -13 11 -13 5 0 7 5 3 12
-5 8 -3 8 7 2 19 -12 72 -12 81 1 5 6 8 6 8 -2 0 -7 10 -10 26 -7 16 3 23 1
19 -6 -3 -6 0 -7 9 -4 9 3 13 11 9 17 -4 6 -1 7 8 1 19 -12 72 -12 81 1 5 6 8
6 8 -2 0 -7 10 -10 26 -7 19 3 24 1 18 -8 -6 -10 -5 -10 7 -2 8 6 25 10 38 8
14 -3 28 1 33 8 6 10 8 10 8 -1 0 -11 3 -11 17 0 9 8 14 9 10 3 -8 -14 85 -13
95 1 5 6 8 5 8 -2 0 -7 7 -10 17 -6 12 5 14 3 8 -8 -7 -11 -6 -12 6 -3 8 6 25
10 38 8 14 -3 28 1 33 8 6 10 8 10 8 1 0 -7 5 -13 11 -13 5 0 7 5 3 12 -5 8
-3 8 7 2 19 -12 72 -12 81 1 5 6 8 6 8 -2 0 -7 10 -10 26 -7 16 3 23 1 19 -6
-3 -6 0 -7 9 -4 9 3 13 11 9 17 -4 6 -1 7 8 1 19 -12 72 -12 81 1 5 6 8 6 8
-2 0 -7 10 -10 26 -7 19 3 24 1 18 -8 -6 -10 -5 -10 7 -2 8 6 25 10 38 8 14
-3 28 1 33 8 6 10 8 10 8 -1 0 -11 3 -11 17 0 9 8 14 9 10 3 -8 -14 85 -13 95
1 5 6 8 5 8 -2 0 -7 7 -10 17 -6 12 5 14 3 8 -8 -7 -11 -6 -12 6 -3 8 6 25 10
38 8 14 -3 28 1 33 8 6 10 8 10 8 1 0 -7 5 -13 11 -13 5 0 7 5 3 12 -5 8 -3 8
7 2 19 -12 72 -12 81 1 5 6 8 6 8 -2 0 -7 10 -10 26 -7 16 3 23 1 19 -6 -3 -6
0 -7 9 -4 9 3 13 11 9 17 -4 6 -1 7 8 1 19 -12 72 -12 81 1 5 6 8 6 8 -2 0 -7
10 -10 26 -7 19 3 24 1 18 -8 -6 -10 -5 -10 7 -2 8 6 25 10 38 8 14 -3 28 1
33 8 6 10 8 10 8 -1 0 -11 3 -11 17 0 9 8 14 9 10 3 -8 -14 85 -13 95 1 5 6 8
5 8 -2 0 -7 7 -10 17 -6 11 4 14 3 9 -5 -5 -8 -2 -10 8 -6 9 3 17 11 17 18 5
42 5 603 0 611 -3 5 -6 16 -7 25 -5 33 -11 47 -34 88 -13 23 -27 42 -32 42 -4
0 -8 7 -8 15 0 8 -6 15 -14 15 -8 0 -17 7 -20 16 -3 8 -10 13 -15 10 -5 -3
-11 1 -15 9 -3 8 -12 15 -21 15 -8 0 -15 4 -15 8 0 4 -12 9 -26 10 -14 1 -31
5 -37 9 -18 11 -60 10 -76 -1 -11 -8 -13 -8 -8 0 8 13 -91 13 -112 0 -9 -6
-12 -5 -8 1 8 12 -92 11 -112 -1 -9 -6 -12 -5 -8 1 8 12 -92 11 -112 -1 -9 -6
-12 -5 -8 1 8 12 -92 11 -112 -1 -9 -6 -12 -5 -8 1 3 5 -13 9 -39 9 -24 0 -44
-4 -44 -10 0 -8 -2 -8 -8 0 -9 13 -75 13 -84 -1 -5 -7 -8 -7 -8 1 0 6 -27 10
-69 10 -41 0 -67 -4 -64 -10 4 -5 1 -6 -8 0 -20 12 -120 13 -112 1 4 -6 1 -7
-8 -1 -20 12 -120 13 -112 1 4 -6 1 -7 -8 -1 -20 12 -120 13 -112 1 4 -6 1 -7
-8 -1 -20 12 -120 13 -112 1 4 -6 1 -7 -8 -1 -20 12 -120 13 -112 1 4 -6 1 -7
-8 -1 -20 12 -109 12 -109 -1 0 -6 -3 -7 -8 0 -8 11 -42 16 -42 6z"/>
<path d="M2780 7310 c0 -3 -10 -6 -22 -7 -37 -2 -61 -10 -102 -33 -47 -26
-126 -109 -135 -141 -28 -99 -29 -120 -28 -404 2 -247 5 -297 17 -305 8 -5 17
-6 20 -2 8 11 52 13 45 3 -3 -6 7 -6 27 0 41 11 41 11 33 -1 -4 -7 3 -7 19 0
19 7 26 6 26 -3 0 -7 3 -8 8 -2 9 13 55 18 47 6 -3 -6 7 -6 27 0 41 11 41 11
33 -1 -4 -7 3 -7 19 0 19 7 26 6 26 -3 0 -7 3 -8 8 -2 9 13 152 14 145 1 -4
-5 -2 -6 4 -3 15 9 127 12 141 4 6 -5 12 -5 12 0 0 4 20 8 44 8 25 1 42 -3 40
-7 -3 -4 1 -6 8 -3 21 8 237 11 232 3 -2 -4 10 -3 28 3 18 5 34 9 36 9 2 0 1
-4 -3 -9 -3 -6 7 -6 27 0 41 11 41 11 33 -1 -4 -7 3 -7 19 0 19 7 26 6 26 -3
0 -7 3 -8 8 -2 9 13 55 18 47 6 -3 -6 7 -6 27 0 41 11 41 11 33 -1 -4 -7 2 -7
19 0 17 6 26 6 30 -3 2 -7 5 -7 5 -2 1 11 111 12 129 1 7 -4 12 -4 12 1 0 4
20 8 44 8 26 1 42 -3 39 -9 -3 -5 -1 -6 5 -3 15 10 205 12 220 3 7 -4 12 -4
12 1 0 4 20 8 44 8 25 1 42 -3 40 -7 -3 -4 1 -6 8 -3 25 8 137 12 133 4 -3 -4
9 -4 27 2 41 11 41 11 33 -1 -4 -7 2 -7 19 0 17 6 26 6 30 -3 3 -9 5 -9 5 0 1
7 8 10 16 7 9 -4 15 0 16 7 1 8 2 21 3 29 1 8 -2 27 -6 43 -3 15 -4 27 0 27 9
0 7 496 -2 528 -3 12 -8 31 -10 41 -20 89 -150 201 -238 205 -16 0 -28 4 -28
9 0 4 -8 3 -18 -2 -10 -5 -24 -6 -32 -1 -8 5 -21 5 -30 0 -9 -5 -22 -5 -30 0
-8 5 -21 5 -30 0 -9 -5 -22 -5 -30 0 -8 5 -21 5 -30 0 -9 -5 -22 -5 -30 0 -8
5 -21 5 -30 0 -9 -5 -22 -5 -30 0 -8 5 -21 5 -30 0 -9 -5 -22 -5 -30 0 -8 5
-21 5 -31 0 -9 -5 -19 -7 -22 -3 -10 10 -51 10 -64 0 -7 -5 -13 -6 -13 -1 0 5
-18 9 -40 9 -22 1 -40 -3 -40 -8 0 -4 -6 -5 -12 -1 -18 11 -48 12 -54 2 -3 -4
-10 -5 -16 -2 -16 10 -78 12 -78 2 0 -5 -6 -6 -12 -2 -18 11 -48 12 -54 2 -3
-4 -10 -5 -16 -2 -16 10 -78 12 -78 2 0 -5 -6 -6 -12 -2 -18 11 -48 12 -54 2
-3 -4 -10 -5 -16 -2 -16 10 -78 12 -78 2 0 -5 -6 -6 -12 -2 -18 11 -48 12 -54
2 -3 -4 -10 -5 -16 -2 -16 10 -78 12 -78 2 0 -5 -6 -6 -12 -2 -18 11 -48 12
-54 2 -3 -4 -10 -5 -16 -2 -16 10 -78 12 -78 2 0 -5 -6 -6 -12 -2 -18 11 -48
12 -54 2 -3 -4 -10 -5 -16 -2 -16 10 -78 12 -78 2 0 -5 -6 -6 -12 -2 -16 10
-48 13 -48 4z"/>
<path d="M7103 6532 c-13 -2 -23 -8 -23 -14 0 -6 -2 -9 -6 -6 -3 3 -45 -7 -95
-22 -49 -15 -89 -26 -89 -24 0 3 -13 -2 -30 -11 -16 -9 -30 -13 -30 -11 0 3
-26 -4 -57 -15 -46 -17 -186 -59 -238 -73 -8 -2 -94 -28 -135 -41 -3 -1 -13
-5 -22 -8 -33 -13 -53 -19 -78 -24 -64 -13 -170 -46 -170 -53 0 -3 -10 -6 -22
-7 -12 -1 -33 -7 -47 -12 -14 -6 -35 -13 -46 -15 -57 -11 -85 -19 -85 -26 0
-5 -8 -7 -17 -6 -10 2 -25 0 -33 -5 -8 -4 -62 -22 -120 -39 -58 -18 -124 -38
-147 -45 -23 -7 -44 -11 -47 -7 -3 3 -6 1 -6 -4 0 -5 -8 -10 -17 -11 -10 -1
-52 -13 -94 -27 -43 -14 -85 -27 -95 -29 -11 -1 -23 -5 -29 -8 -10 -6 -55 -18
-65 -18 -3 0 -18 -5 -35 -11 -16 -7 -41 -14 -55 -17 -14 -2 -26 -8 -28 -13 -2
-5 -9 -7 -17 -4 -7 3 -16 0 -20 -5 -3 -6 -10 -9 -15 -6 -5 3 -7 -7 -5 -22 4
-31 42 -166 56 -198 6 -16 23 -72 45 -153 2 -7 3 -13 2 -15 -1 -1 4 -11 10
-23 6 -11 13 -32 16 -45 2 -13 15 -58 29 -99 23 -70 36 -116 43 -148 1 -8 6
-21 10 -30 8 -20 14 -40 16 -64 1 -10 6 -18 10 -18 4 0 8 -11 8 -25 0 -14 4
-25 9 -25 5 0 8 -6 8 -12 -1 -15 19 -90 35 -132 7 -17 13 -37 13 -45 2 -21 34
-122 46 -143 5 -10 9 -27 9 -38 0 -11 4 -20 10 -20 5 0 7 -6 4 -14 -3 -8 -1
-23 5 -34 6 -11 13 -34 16 -53 3 -18 9 -36 13 -39 4 -3 8 -16 10 -30 2 -14 7
-34 12 -45 8 -18 41 -126 46 -150 1 -5 9 -32 19 -60 9 -27 19 -61 21 -74 3
-13 11 -39 19 -57 7 -18 11 -35 7 -38 -3 -3 -1 -6 4 -6 5 0 10 -8 11 -18 1
-11 11 -47 22 -82 12 -35 21 -71 21 -81 0 -10 5 -21 10 -24 6 -3 10 -19 10
-35 0 -16 4 -31 9 -34 8 -5 25 -64 22 -78 0 -5 4 -8 10 -8 5 0 7 -4 4 -10 -3
-5 1 -22 9 -38 8 -16 13 -32 11 -34 -3 -3 4 -31 16 -64 11 -32 23 -70 25 -83
3 -13 9 -31 13 -40 5 -9 9 -19 10 -24 2 -24 15 -64 24 -74 5 -7 7 -13 4 -13
-3 0 3 -25 13 -55 10 -30 17 -55 15 -55 -2 0 3 -16 11 -35 8 -19 15 -38 15
-42 1 -5 5 -18 10 -29 4 -12 11 -38 14 -58 4 -20 11 -39 16 -42 5 -3 9 -14 9
-25 0 -11 14 -63 31 -116 17 -52 32 -100 34 -107 1 -6 5 -18 8 -26 6 -14 44
-146 53 -179 2 -9 34 -115 71 -237 75 -245 64 -231 153 -206 25 7 51 15 58 17
7 3 16 5 20 6 4 1 28 10 55 20 26 10 47 17 47 14 0 -2 17 3 38 12 20 8 51 18
67 20 17 3 36 10 43 15 6 6 12 8 12 4 0 -3 12 -1 28 5 15 6 36 13 47 15 27 7
37 10 55 17 31 12 110 37 132 41 13 2 50 13 83 24 104 34 210 65 223 65 6 0
12 3 12 6 0 4 12 8 26 9 14 1 31 5 37 9 7 4 17 8 23 9 7 1 54 16 105 32 78 25
150 47 192 58 4 1 8 2 10 4 1 1 15 4 32 6 16 3 34 9 40 13 11 9 75 26 88 23 4
-1 7 3 7 9 0 5 8 9 18 8 9 -1 31 3 47 10 17 7 38 15 48 17 9 2 27 6 40 10 12
3 33 7 47 10 13 3 27 9 30 13 5 7 60 24 119 37 13 3 34 10 45 16 12 6 22 11
24 10 1 -1 22 3 47 9 40 10 43 13 34 31 -6 11 -12 29 -15 41 -5 30 -34 128
-45 152 -4 11 -13 40 -20 65 -6 25 -15 54 -20 65 -5 11 -13 40 -19 65 -6 25
-12 50 -13 55 -1 6 -7 17 -12 25 -5 8 -10 25 -11 39 -2 13 -7 27 -11 30 -4 3
-9 15 -10 26 -3 23 -11 59 -14 63 -1 1 -2 5 -3 10 -14 53 -51 172 -63 202 -3
8 -8 26 -10 40 -2 13 -9 30 -14 36 -5 7 -9 16 -8 20 3 10 -35 141 -56 194 -11
30 -73 237 -78 265 -2 6 -8 24 -14 40 -11 30 -53 167 -58 189 -1 6 -4 18 -7
26 -6 16 -51 162 -53 170 -1 3 -9 32 -19 65 -10 33 -19 65 -20 70 -1 6 -5 16
-9 23 -5 6 -6 12 -2 12 3 0 -1 16 -9 35 -8 19 -12 35 -9 35 3 0 1 6 -5 13 -6
7 -14 28 -17 47 -3 19 -10 39 -14 45 -5 5 -14 37 -21 70 -7 33 -16 65 -21 71
-5 6 -10 23 -11 38 -1 14 -6 26 -10 26 -4 0 -7 3 -6 8 0 4 -1 14 -4 22 -3 8
-22 74 -42 145 -21 72 -40 137 -43 145 -3 8 -8 22 -10 30 -5 21 -9 33 -16 50
-3 8 -16 49 -27 90 -12 41 -28 94 -36 118 -8 24 -12 48 -9 53 4 5 2 9 -3 9 -5
0 -24 53 -42 118 -18 64 -38 123 -43 130 -5 6 -7 12 -4 12 3 0 -5 32 -18 70
-13 39 -22 70 -19 70 2 0 -2 13 -11 30 -8 16 -15 33 -15 37 -1 15 -22 88 -52
183 -17 52 -31 99 -31 106 0 11 -7 12 -44 6z m-148 -542 c-3 -4 -1 -10 5 -12
5 -1 11 -12 13 -23 9 -46 20 -75 29 -75 5 0 7 -4 4 -8 -3 -5 2 -31 10 -58 9
-27 17 -56 19 -64 2 -8 8 -29 14 -47 5 -17 7 -34 3 -37 -3 -3 0 -6 6 -6 7 0
12 -9 12 -20 0 -11 4 -28 10 -38 11 -19 40 -122 47 -168 3 -21 1 -31 -9 -32
-35 -2 -65 -9 -78 -17 -8 -5 -25 -10 -39 -11 -13 -2 -27 -7 -30 -11 -3 -4 -10
-8 -16 -8 -11 -1 -120 -32 -145 -42 -8 -3 -26 -8 -40 -10 -13 -2 -27 -7 -30
-11 -3 -4 -14 -8 -25 -10 -28 -4 -38 -7 -50 -13 -5 -4 -18 -5 -28 -4 -9 2 -15
-1 -11 -6 5 -9 -9 -13 -33 -10 -7 1 -13 -3 -13 -8 0 -5 -9 -8 -20 -6 -11 2
-22 0 -25 -4 -2 -5 -22 -12 -42 -17 -44 -9 -52 -11 -55 -14 -3 -2 -26 -8 -50
-13 -10 -2 -21 -6 -24 -10 -4 -4 -16 -7 -26 -7 -10 0 -18 -5 -18 -12 0 -9 -3
-9 -11 -1 -9 9 -18 8 -35 -4 -13 -8 -28 -12 -34 -8 -5 3 -10 2 -10 -3 0 -9
-95 -38 -117 -36 -7 1 -13 -2 -13 -7 0 -5 -7 -6 -15 -3 -8 4 -15 2 -15 -4 0
-8 -33 -18 -77 -24 -7 -1 -13 -5 -13 -10 0 -5 -4 -6 -10 -3 -5 3 -16 3 -22 -2
-13 -8 -33 -13 -55 -15 -7 -1 -13 -4 -13 -7 0 -4 -12 -8 -26 -9 -14 -1 -31 -5
-37 -9 -7 -4 -18 -8 -25 -9 -8 -2 -21 -6 -30 -10 -27 -11 -63 -13 -57 -3 4 5
2 9 -3 9 -5 0 -12 12 -15 28 -12 64 -19 88 -28 97 -5 5 -9 20 -9 32 0 13 -7
37 -15 53 -9 17 -13 30 -11 30 3 0 1 12 -5 28 -6 15 -20 59 -30 97 -11 39 -22
77 -26 85 -3 8 -8 26 -10 40 -2 13 -7 27 -11 30 -13 10 -13 50 0 54 7 2 40 11
73 21 33 9 67 19 75 22 8 4 18 7 23 8 4 2 10 4 15 5 4 1 11 2 16 1 4 -1 14 4
22 10 8 6 14 8 14 4 0 -4 7 -2 15 5 8 6 19 9 25 5 5 -3 10 -1 10 4 0 6 3 10 8
9 4 -1 27 4 52 12 25 7 51 13 58 13 6 0 12 3 12 7 0 4 6 7 13 8 25 3 62 10 65
12 1 2 7 4 12 5 6 1 13 4 18 5 4 1 10 2 15 1 4 0 7 4 7 11 0 6 3 8 6 5 4 -3
14 -2 24 3 9 5 28 11 41 14 48 10 154 41 159 46 6 6 25 11 55 14 11 1 30 8 43
15 12 6 22 9 22 5 0 -3 6 -2 13 3 10 9 53 23 67 22 3 0 19 5 35 11 17 7 41 14
55 17 13 2 29 8 36 14 6 5 14 6 17 2 4 -3 13 0 22 7 8 7 15 9 15 6 0 -4 6 -4
13 1 6 4 15 8 20 9 4 1 8 2 10 4 1 1 11 4 22 6 33 8 50 12 53 14 1 2 7 4 12 5
6 1 12 4 15 5 3 1 10 4 15 5 6 1 11 3 13 5 1 1 10 3 20 5 11 2 20 5 22 7 8 8
45 6 40 -2z"/>
<path d="M180 4219 l0 -1999 1081 2 1082 3 1 1997 1 1997 -1082 0 -1083 0 0
-2000z m540 1541 c30 -1 58 -1 63 0 21 4 147 1 154 -3 5 -3 14 -2 20 1 7 4 42
5 78 2 36 -3 68 -4 70 -1 4 3 281 4 302 0 4 -1 11 -1 16 0 19 5 146 3 154 -2
5 -3 14 -2 20 1 7 4 42 5 78 2 36 -3 68 -4 70 -1 7 6 226 2 236 -5 5 -3 9 0 9
6 0 6 4 8 10 5 6 -4 9 -121 9 -315 l-1 -309 -69 2 c-41 1 -69 -2 -69 -8 0 -7
-3 -7 -8 0 -4 6 -55 10 -117 10 -62 0 -113 -4 -117 -10 -5 -7 -8 -7 -8 0 0 6
-138 10 -392 10 -251 0 -396 -4 -400 -10 -5 -7 -8 -7 -8 0 0 6 -57 10 -154 9
l-153 -1 1 306 0 306 31 5 c16 3 50 4 75 3 25 0 70 -2 100 -3z"/>
<path d="M2494 6211 c-2 -2 -4 -902 -4 -2000 l0 -1996 1068 1 c587 1 1073 2
1080 3 10 1 12 404 10 1999 l-3 1997 -1073 0 c-590 0 -1075 -2 -1078 -4z
m1821 -461 c4 -7 6 -50 4 -100 0 -8 0 -24 1 -35 0 -11 -1 -48 -2 -82 -2 -35 0
-63 5 -63 6 0 6 -5 1 -12 -11 -16 -11 -39 -1 -55 5 -7 4 -13 -1 -13 -10 0 -9
-30 2 -48 4 -6 3 -12 -2 -12 -10 0 -9 -30 2 -48 4 -6 3 -12 -2 -12 -6 0 -7
-13 -3 -33 5 -18 5 -41 1 -52 -4 -11 -6 -23 -4 -26 2 -4 -3 -12 -11 -19 -11
-9 -15 -9 -15 -1 0 7 -5 9 -11 6 -8 -6 -973 -9 -1389 -6 l-65 1 1 303 c1 166
2 305 3 308 2 9 1481 8 1486 -1z"/>
<path d="M8283 2595 c-25 -10 -33 -11 -33 -2 0 8 -3 7 -9 -2 -5 -7 -19 -15
-32 -16 -39 -4 -40 -5 -33 -17 4 -7 3 -8 -4 -4 -6 4 -33 0 -59 -9 -27 -9 -59
-19 -72 -21 -13 -3 -32 -9 -41 -14 -10 -5 -20 -6 -24 -3 -3 3 -6 1 -6 -5 0 -6
-7 -9 -15 -6 -8 4 -15 2 -15 -3 0 -5 -8 -9 -17 -10 -18 -1 -58 -10 -58 -13 0
-1 -11 -4 -25 -6 -13 -2 -35 -12 -48 -20 -14 -9 -21 -11 -18 -5 4 6 2 11 -3
11 -6 0 -11 -4 -11 -9 0 -5 -15 -12 -32 -16 -18 -4 -35 -8 -38 -9 -3 -1 -29
-8 -57 -15 -29 -7 -53 -17 -53 -21 0 -4 -9 -6 -20 -3 -11 3 -20 1 -20 -5 0 -6
-9 -9 -20 -7 -11 2 -20 -1 -20 -6 0 -6 -5 -7 -10 -4 -6 4 -17 2 -24 -4 -7 -6
-21 -12 -32 -14 -10 -1 -25 -6 -31 -10 -7 -5 -17 -5 -23 -2 -5 3 -10 1 -10 -5
0 -6 -8 -10 -17 -9 -10 2 -36 -5 -57 -14 -22 -10 -41 -15 -44 -12 -2 2 -13 0
-24 -6 -19 -10 -49 -19 -78 -22 -8 -1 -18 -5 -21 -10 -6 -8 -42 -18 -71 -20
-10 -1 -18 -4 -18 -7 0 -4 -7 -7 -15 -8 -8 -1 -22 -3 -30 -4 -8 -1 -15 -6 -15
-11 0 -6 -3 -7 -7 -4 -3 4 -13 1 -21 -6 -13 -10 -14 -9 -7 3 7 12 3 11 -18 -2
-31 -21 -41 -23 -32 -5 4 6 1 5 -7 -4 -7 -9 -23 -15 -35 -14 -13 1 -23 -2 -23
-6 0 -4 -15 -11 -32 -14 -18 -4 -37 -10 -43 -13 -5 -4 -19 -8 -30 -10 -27 -5
-37 -8 -57 -16 -9 -4 -22 -9 -30 -10 -7 -1 -33 -9 -58 -16 -25 -7 -48 -13 -52
-12 -5 1 -8 -3 -8 -9 0 -5 -4 -8 -9 -4 -5 3 -20 1 -33 -4 -29 -12 -60 -23 -73
-27 -29 -8 -63 -17 -87 -21 -29 -5 -61 -33 -39 -33 7 0 10 -4 7 -9 -3 -5 3
-34 14 -66 11 -32 17 -61 14 -66 -3 -5 -1 -9 4 -9 8 0 25 -55 19 -64 -1 -1 5
-11 13 -21 11 -14 11 -17 2 -11 -12 7 -12 4 -1 -15 10 -20 38 -111 56 -186 3
-13 8 -23 12 -23 4 0 8 -8 9 -17 3 -32 8 -48 20 -70 7 -13 10 -23 7 -23 -4 0
1 -7 9 -16 9 -8 13 -20 10 -26 -4 -7 -2 -8 4 -4 7 4 12 3 12 -3 0 -13 48 -61
60 -61 5 0 13 -7 18 -17 5 -9 19 -17 30 -18 11 0 27 -7 36 -14 9 -8 16 -10 16
-5 0 5 5 2 10 -6 8 -12 10 -12 10 -1 0 9 4 10 13 3 14 -12 66 -10 86 2 10 6
12 5 7 -2 -9 -16 7 -15 22 0 7 7 12 8 12 4 0 -5 8 -2 17 5 10 9 14 9 10 2 -6
-9 3 -8 28 2 19 9 35 12 35 9 0 -4 7 -1 15 6 8 7 15 10 15 6 0 -4 13 0 29 8
16 9 31 12 35 9 3 -4 6 -2 6 3 0 5 9 11 20 12 44 4 50 6 50 14 0 5 4 7 9 3 5
-3 12 -1 16 4 3 5 14 8 25 6 11 -2 20 0 20 4 0 4 6 8 13 9 25 1 71 13 87 22
10 5 20 6 24 3 3 -3 6 -1 6 5 0 6 7 9 15 6 8 -4 15 -1 15 6 0 6 5 8 10 5 6 -3
10 -2 10 2 0 5 8 9 18 10 25 2 45 7 60 16 6 5 12 6 12 3 0 -3 18 1 41 9 22 8
43 14 47 13 4 -1 21 4 37 11 17 7 38 14 49 17 10 2 25 9 34 16 13 11 14 11 7
-2 -8 -13 -7 -13 8 -1 9 7 17 10 17 6 0 -4 7 -2 15 5 8 7 15 9 15 4 0 -4 5 -3
12 4 7 7 22 12 33 12 12 0 25 3 29 7 3 4 12 8 19 9 51 9 71 14 76 21 3 5 16 8
29 7 12 -1 25 3 28 7 3 5 16 9 30 9 13 0 24 4 24 8 0 5 6 9 13 10 12 1 47 9
57 12 3 1 8 2 13 1 4 0 7 4 7 10 0 5 5 7 11 3 6 -3 15 0 20 7 7 12 9 12 9 0 0
-9 4 -10 13 -3 11 9 77 31 117 38 8 2 16 8 18 14 3 8 8 7 18 -1 8 -6 14 -7 14
-2 0 9 69 39 83 35 4 -1 7 3 7 10 0 6 3 9 6 5 10 -10 90 81 115 132 18 35 23
65 25 126 1 44 -3 85 -7 91 -5 6 -11 21 -13 35 -3 13 -5 24 -6 24 -2 0 -11 36
-14 57 -1 10 -5 21 -9 24 -4 4 -7 16 -7 26 0 10 -5 18 -11 18 -6 0 -8 9 -4 20
4 13 2 20 -6 20 -7 0 -9 3 -6 7 4 3 2 12 -4 19 -6 8 -9 20 -6 28 3 7 -1 23 -9
34 -8 11 -15 32 -16 46 -1 14 -6 26 -11 26 -4 0 -6 4 -2 9 3 5 0 13 -6 17 -8
4 -7 9 2 15 9 5 10 9 3 9 -10 0 -20 23 -29 66 -7 30 -17 54 -23 54 -4 -1 -22
-7 -39 -15z"/>
<path d="M187 2105 c-4 -11 -1 -608 3 -640 2 -11 7 -23 12 -26 5 -3 10 -14 12
-23 3 -23 78 -126 87 -120 4 2 14 -4 21 -13 7 -10 20 -19 28 -21 8 -2 17 -7
20 -10 5 -6 13 -8 63 -14 9 -1 17 -6 17 -10 0 -5 9 -4 19 2 11 5 22 6 25 2 6
-10 56 -9 72 1 6 3 14 3 18 0 12 -12 56 -11 56 1 0 7 3 8 8 1 4 -6 21 -11 37
-11 17 0 33 5 37 11 5 7 8 7 8 -1 0 -12 58 -13 77 -1 6 4 14 3 17 -1 6 -10 46
-10 63 1 6 4 14 4 17 -1 6 -10 96 -9 113 1 6 4 14 3 17 -1 6 -10 46 -10 63 1
6 4 14 3 17 -1 6 -10 46 -10 63 1 6 4 14 3 17 -1 7 -11 46 -9 65 2 11 7 12 6
6 -5 -8 -12 -6 -12 8 0 9 7 17 9 17 4 0 -11 59 -11 76 0 6 3 14 3 18 -1 12
-11 116 -9 116 3 0 7 3 7 8 0 9 -14 85 -14 94 0 5 7 8 7 8 -1 0 -11 58 -13 76
-1 6 3 14 3 18 0 12 -12 56 -11 56 1 0 7 3 8 8 1 9 -14 65 -14 74 0 5 7 8 7 8
0 0 -12 108 -14 127 -2 6 4 14 4 17 -1 4 -7 71 -9 71 -2 0 1 11 4 25 7 14 2
32 6 40 8 8 2 18 4 21 4 3 1 15 10 27 21 12 12 22 18 22 15 0 -14 79 73 95
105 38 73 42 117 41 424 -1 243 -4 300 -15 304 -9 3 -11 0 -6 -8 6 -10 4 -11
-6 -4 -18 11 -178 13 -185 2 -3 -5 -11 -5 -17 -1 -20 12 -37 12 -37 0 0 -8 -3
-8 -8 -2 -9 14 -233 15 -225 1 4 -5 1 -6 -8 0 -18 11 -178 13 -185 2 -3 -5
-11 -5 -17 -1 -20 12 -37 12 -37 0 0 -8 -3 -8 -8 -2 -9 14 -233 15 -225 1 4
-5 1 -6 -8 0 -19 12 -209 13 -233 1 -10 -5 -16 -5 -13 0 7 12 -293 10 -312 -1
-9 -6 -12 -5 -8 0 7 13 -293 12 -312 0 -8 -6 -12 -5 -8 0 3 6 -50 10 -134 10
-85 -1 -140 -4 -142 -11z"/>
<path d="M2501 2110 c-7 -5 -8 -625 -1 -642 1 -5 4 -12 5 -18 1 -5 4 -13 5
-17 1 -5 2 -11 1 -15 0 -5 3 -8 9 -8 5 0 10 -7 10 -15 0 -8 3 -15 8 -15 4 0
13 -14 20 -30 8 -17 18 -28 23 -24 5 3 9 -1 9 -8 0 -14 59 -58 78 -58 7 0 12
-4 12 -8 0 -7 16 -11 58 -14 6 -1 12 -4 12 -8 0 -9 1596 -7 1605 2 4 4 18 3
31 -2 15 -6 24 -6 24 0 0 6 7 10 16 10 20 0 94 41 94 52 0 4 6 8 13 8 8 0 20
11 27 25 7 13 17 22 22 19 4 -3 8 2 8 10 0 8 7 22 16 30 8 9 13 16 9 16 -3 0
0 10 6 23 7 12 14 38 16 57 8 67 9 345 2 372 -4 15 -4 30 -1 32 5 3 8 180 3
219 -1 5 -9 7 -18 6 -10 -1 -20 0 -23 1 -17 6 -50 5 -50 -2 0 -5 -6 -6 -12 -1
-17 10 -88 10 -88 0 0 -5 -6 -5 -12 -1 -18 11 -48 12 -48 2 0 -5 -6 -6 -12 -1
-17 10 -88 10 -88 0 0 -5 -6 -5 -12 -1 -18 11 -48 12 -48 2 0 -5 -6 -6 -12 -1
-17 10 -88 10 -88 0 0 -5 -6 -5 -12 -1 -18 11 -48 12 -48 2 0 -5 -6 -6 -12 -1
-17 10 -88 10 -88 0 0 -5 -6 -5 -12 -1 -18 11 -48 12 -48 2 0 -5 -6 -6 -12 -1
-18 11 -30 11 -50 1 -10 -5 -18 -5 -18 0 0 4 -13 8 -30 7 -16 0 -30 -4 -30 -9
0 -5 -6 -4 -13 2 -8 7 -18 7 -27 2 -8 -5 -18 -6 -23 -3 -16 10 -67 11 -67 1 0
-5 -5 -6 -12 -2 -17 11 -58 11 -58 1 0 -4 -6 -5 -12 -1 -7 5 -22 8 -33 8 -11
0 -26 -3 -33 -8 -6 -4 -12 -3 -12 1 0 10 -50 11 -65 1 -6 -4 -17 -3 -25 2 -9
5 -19 5 -27 -2 -7 -6 -13 -6 -13 -1 0 5 -13 9 -30 8 -16 0 -30 -4 -30 -9 0 -5
-6 -4 -13 2 -8 7 -18 7 -27 2 -8 -5 -18 -6 -23 -3 -16 10 -67 11 -67 1 0 -5
-5 -6 -12 -2 -17 11 -58 11 -58 1 0 -4 -6 -5 -12 -1 -7 5 -22 8 -33 8 -11 0
-26 -3 -33 -8 -6 -4 -12 -3 -12 1 0 10 -50 11 -65 1 -6 -4 -17 -3 -25 2 -9 5
-19 5 -27 -2 -7 -6 -13 -6 -13 -1 0 5 -13 9 -30 8 -16 0 -30 -4 -30 -9 0 -5
-6 -4 -13 2 -8 7 -18 7 -27 2 -8 -5 -18 -6 -23 -3 -16 10 -67 11 -67 1 0 -5
-5 -6 -12 -2 -17 11 -58 11 -58 1 0 -4 -5 -5 -12 -1 -14 9 -86 12 -97 4z"/>
</g>
</svg>
