<?xml version="1.0" encoding="iso-8859-1"?>
<!-- Generator: Adobe Illustrator 19.0.0, SVG Export Plug-In . SVG Version: 6.00 Build 0)  -->
<svg version="1.1" id="Layer_1" xmlns="http://www.w3.org/2000/svg" xmlns:xlink="http://www.w3.org/1999/xlink" x="0px" y="0px"
	 viewBox="0 0 512 512" style="enable-background:new 0 0 512 512;" xml:space="preserve">
<g>
	<g>
		<path d="M14.024,0v348.895H287.73L430.448,512V348.895h67.528V0H14.024z M464.212,315.131h-67.528v107.007l-93.631-107.007H47.788
			V33.764h416.423V315.131z"/>
	</g>
</g>
<g>
	<g>
		<path d="M256,123.801c-27.927,0-50.646,22.719-50.646,50.646c0,27.927,22.719,50.646,50.646,50.646
			c27.926,0,50.646-22.719,50.646-50.646C306.646,146.52,283.927,123.801,256,123.801z M256,191.33
			c-9.309,0-16.882-7.573-16.882-16.882c0-9.309,7.572-16.882,16.882-16.882c9.309,0,16.882,7.573,16.882,16.882
			C272.882,183.756,265.309,191.33,256,191.33z"/>
	</g>
</g>
<g>
	<g>
		<path d="M132.199,123.801c-27.926,0-50.646,22.719-50.646,50.646c0,27.927,22.719,50.646,50.646,50.646
			c27.926,0,50.646-22.719,50.646-50.646C182.845,146.52,160.125,123.801,132.199,123.801z M132.199,191.33
			c-9.309,0-16.882-7.573-16.882-16.882c0-9.309,7.572-16.882,16.882-16.882c9.309,0,16.882,7.573,16.882,16.882
			C149.081,183.756,141.507,191.33,132.199,191.33z"/>
	</g>
</g>
<g>
	<g>
		<path d="M379.801,123.801c-27.926,0-50.646,22.719-50.646,50.646c0,27.927,22.719,50.646,50.646,50.646
			c27.927,0,50.646-22.719,50.646-50.646C430.448,146.52,407.729,123.801,379.801,123.801z M379.801,191.33
			c-9.309,0-16.882-7.573-16.882-16.882c0-9.309,7.572-16.882,16.882-16.882s16.882,7.573,16.882,16.882
			C396.684,183.756,389.111,191.33,379.801,191.33z"/>
	</g>
</g>
<g>
</g>
<g>
</g>
<g>
</g>
<g>
</g>
<g>
</g>
<g>
</g>
<g>
</g>
<g>
</g>
<g>
</g>
<g>
</g>
<g>
</g>
<g>
</g>
<g>
</g>
<g>
</g>
<g>
</g>
</svg>
